<svg xmlns="http://www.w3.org/2000/svg" width="1008" height="1260" viewBox="0 0 1008 1260"><defs><style>.cls-1{fill-rule:evenodd}</style></defs><path id="Color_Fill_1" d="M866,232c40.105-.6,48.66,19.448,70,36,16.709,12.961,35.26,23.165,50,38V420L16,694c13.616-28.39,42.54-72.7,49-104H45c-11.658-5.643-61.177-21.066-66-29l-1-245c86.243-9.656,87.575,13.611,140,44l45,14c19.692,8.12,36.463,20.6,54,30,23.819,12.773,54.367,14.938,70,36l50-15c14.819-4.019,27.535-1.139,39-7l23-19,43-5c-1.2-62.245,27.547-83.575,49-121,8.7-15.172,21.282-40.534,37-48l62-1c11.741-52.183,20.021-57.767,67-75,10.571-3.878,23.581-10.415,37-11,41.8,22.411,66.566,3.744,103-4l42,2c6.03,11.659,16.336,16.932,23,27C872.257,178.5,866.322,215.383,866,232ZM985,914q0.5,151.98,1,304c-19.053-3.24-33.588-31.36-48-42q10.5-48.99,21-98C971.193,1028.93,983.509,972.266,985,914Z" class="cls-1" data-name="Color Fill 1"/></svg>